solid STL generated by MeshLab
  facet normal  0.000000e+00 -0.000000e+00 -1.000000e+00
    outer loop
      vertex   4.481432e+02  1.738447e+02  1.519437e+02
      vertex   4.481432e+02 -1.738447e+02  1.519437e+02
      vertex   1.004537e+02 -1.738447e+02  1.519437e+02
    endloop
  endfacet
  facet normal  0.000000e+00  0.000000e+00 -1.000000e+00
    outer loop
      vertex   1.004537e+02 -1.738447e+02  1.519437e+02
      vertex   1.004538e+02  1.738448e+02  1.519437e+02
      vertex   4.481432e+02  1.738447e+02  1.519437e+02
    endloop
  endfacet
  facet normal  0.000000e+00  0.000000e+00  1.000000e+00
    outer loop
      vertex   4.481432e+02  1.738446e+02  4.996331e+02
      vertex   1.004537e+02  1.738447e+02  4.996331e+02
      vertex   1.004537e+02 -1.738447e+02  4.996331e+02
    endloop
  endfacet
  facet normal -0.000000e+00  0.000000e+00  1.000000e+00
    outer loop
      vertex   1.004537e+02 -1.738447e+02  4.996331e+02
      vertex   4.481430e+02 -1.738448e+02  4.996331e+02
      vertex   4.481432e+02  1.738446e+02  4.996331e+02
    endloop
  endfacet
  facet normal  1.000000e+00 -7.021801e-07 -2.633178e-07
    outer loop
      vertex   4.481432e+02  1.738447e+02  1.519437e+02
      vertex   4.481432e+02  1.738446e+02  4.996331e+02
      vertex   4.481430e+02 -1.738448e+02  4.996331e+02
    endloop
  endfacet
  facet normal  1.000000e+00  0.000000e+00  4.388627e-07
    outer loop
      vertex   4.481430e+02 -1.738448e+02  4.996331e+02
      vertex   4.481432e+02 -1.738447e+02  1.519437e+02
      vertex   4.481432e+02  1.738447e+02  1.519437e+02
    endloop
  endfacet
  facet normal -5.705215e-07 -1.000000e+00 -4.388629e-07
    outer loop
      vertex   4.481432e+02 -1.738447e+02  1.519437e+02
      vertex   4.481430e+02 -1.738448e+02  4.996331e+02
      vertex   1.004537e+02 -1.738447e+02  4.996331e+02
    endloop
  endfacet
  facet normal  0.000000e+00 -1.000000e+00  1.316588e-07
    outer loop
      vertex   1.004537e+02 -1.738447e+02  4.996331e+02
      vertex   1.004537e+02 -1.738447e+02  1.519437e+02
      vertex   4.481432e+02 -1.738447e+02  1.519437e+02
    endloop
  endfacet
  facet normal -1.000000e+00  1.316588e-07 -1.316588e-07
    outer loop
      vertex   1.004537e+02 -1.738447e+02  1.519437e+02
      vertex   1.004537e+02 -1.738447e+02  4.996331e+02
      vertex   1.004537e+02  1.738447e+02  4.996331e+02
    endloop
  endfacet
  facet normal -1.000000e+00  1.536019e-07 -1.536019e-07
    outer loop
      vertex   1.004537e+02  1.738447e+02  4.996331e+02
      vertex   1.004538e+02  1.738448e+02  1.519437e+02
      vertex   1.004537e+02 -1.738447e+02  1.519437e+02
    endloop
  endfacet
  facet normal  3.072038e-07  1.000000e+00  2.633175e-07
    outer loop
      vertex   4.481432e+02  1.738446e+02  4.996331e+02
      vertex   4.481432e+02  1.738447e+02  1.519437e+02
      vertex   1.004538e+02  1.738448e+02  1.519437e+02
    endloop
  endfacet
  facet normal  2.633174e-07  1.000000e+00  3.072039e-07
    outer loop
      vertex   1.004538e+02  1.738448e+02  1.519437e+02
      vertex   1.004537e+02  1.738447e+02  4.996331e+02
      vertex   4.481432e+02  1.738446e+02  4.996331e+02
    endloop
  endfacet
endsolid vcg
