solid Default
  facet normal 0.000000e+00 1.000000e+00 0.000000e+00
    outer loop
      vertex -1.300000e+01 1.300000e+01 2.600000e+01
      vertex -9.500000e+00 1.300000e+01 2.250000e+01
      vertex -9.500000e+00 1.300000e+01 3.500000e+00
    endloop
  endfacet
  facet normal -1.000000e+00 0.000000e+00 0.000000e+00
    outer loop
      vertex 9.500000e+00 1.300000e+01 2.250000e+01
      vertex 9.500000e+00 9.500000e+00 3.500000e+00
      vertex 9.500000e+00 9.500000e+00 2.250000e+01
    endloop
  endfacet
  facet normal -0.000000e+00 -0.000000e+00 -1.000000e+00
    outer loop
      vertex -9.500000e+00 1.300000e+01 2.250000e+01
      vertex 9.500000e+00 9.500000e+00 2.250000e+01
      vertex -9.500000e+00 9.500000e+00 2.250000e+01
    endloop
  endfacet
  facet normal 0.000000e+00 0.000000e+00 -1.000000e+00
    outer loop
      vertex 9.500000e+00 -1.300000e+01 2.250000e+01
      vertex -9.500000e+00 -9.500000e+00 2.250000e+01
      vertex 9.500000e+00 -9.500000e+00 2.250000e+01
    endloop
  endfacet
  facet normal 0.000000e+00 0.000000e+00 1.000000e+00
    outer loop
      vertex 9.500000e+00 1.300000e+01 3.500000e+00
      vertex -9.500000e+00 9.500000e+00 3.500000e+00
      vertex 9.500000e+00 9.500000e+00 3.500000e+00
    endloop
  endfacet
  facet normal 1.000000e+00 0.000000e+00 0.000000e+00
    outer loop
      vertex -9.500000e+00 1.300000e+01 3.500000e+00
      vertex -9.500000e+00 9.500000e+00 2.250000e+01
      vertex -9.500000e+00 9.500000e+00 3.500000e+00
    endloop
  endfacet
  facet normal 1.000000e+00 0.000000e+00 0.000000e+00
    outer loop
      vertex -9.500000e+00 -1.300000e+01 2.250000e+01
      vertex -9.500000e+00 -9.500000e+00 3.500000e+00
      vertex -9.500000e+00 -9.500000e+00 2.250000e+01
    endloop
  endfacet
  facet normal -1.000000e+00 0.000000e+00 0.000000e+00
    outer loop
      vertex 9.500000e+00 -1.300000e+01 3.500000e+00
      vertex 9.500000e+00 -9.500000e+00 2.250000e+01
      vertex 9.500000e+00 -9.500000e+00 3.500000e+00
    endloop
  endfacet
  facet normal 0.000000e+00 0.000000e+00 1.000000e+00
    outer loop
      vertex -9.500000e+00 -1.300000e+01 3.500000e+00
      vertex 9.500000e+00 -9.500000e+00 3.500000e+00
      vertex -9.500000e+00 -9.500000e+00 3.500000e+00
    endloop
  endfacet
  facet normal 0.000000e+00 1.000000e+00 0.000000e+00
    outer loop
      vertex -9.500000e+00 -9.500000e+00 3.500000e+00
      vertex 9.500000e+00 -9.500000e+00 0.000000e+00
      vertex -9.500000e+00 -9.500000e+00 0.000000e+00
    endloop
  endfacet
  facet normal 0.000000e+00 1.000000e+00 0.000000e+00
    outer loop
      vertex 9.500000e+00 -9.500000e+00 3.500000e+00
      vertex 1.300000e+01 -9.500000e+00 2.250000e+01
      vertex 1.300000e+01 -9.500000e+00 3.500000e+00
    endloop
  endfacet
  facet normal 0.000000e+00 1.000000e+00 0.000000e+00
    outer loop
      vertex 9.500000e+00 -9.500000e+00 2.250000e+01
      vertex -9.500000e+00 -9.500000e+00 2.600000e+01
      vertex 9.500000e+00 -9.500000e+00 2.600000e+01
    endloop
  endfacet
  facet normal 0.000000e+00 1.000000e+00 0.000000e+00
    outer loop
      vertex -9.500000e+00 -9.500000e+00 2.250000e+01
      vertex -1.300000e+01 -9.500000e+00 3.500000e+00
      vertex -1.300000e+01 -9.500000e+00 2.250000e+01
    endloop
  endfacet
  facet normal -0.000000e+00 -1.000000e+00 -0.000000e+00
    outer loop
      vertex -9.500000e+00 9.500000e+00 3.500000e+00
      vertex -1.300000e+01 9.500000e+00 2.250000e+01
      vertex -1.300000e+01 9.500000e+00 3.500000e+00
    endloop
  endfacet
  facet normal 0.000000e+00 -1.000000e+00 0.000000e+00
    outer loop
      vertex -9.500000e+00 9.500000e+00 2.250000e+01
      vertex 9.500000e+00 9.500000e+00 2.600000e+01
      vertex -9.500000e+00 9.500000e+00 2.600000e+01
    endloop
  endfacet
  facet normal 0.000000e+00 -1.000000e+00 0.000000e+00
    outer loop
      vertex 9.500000e+00 9.500000e+00 2.250000e+01
      vertex 1.300000e+01 9.500000e+00 3.500000e+00
      vertex 1.300000e+01 9.500000e+00 2.250000e+01
    endloop
  endfacet
  facet normal 0.000000e+00 -1.000000e+00 0.000000e+00
    outer loop
      vertex 9.500000e+00 9.500000e+00 3.500000e+00
      vertex -9.500000e+00 9.500000e+00 0.000000e+00
      vertex 9.500000e+00 9.500000e+00 0.000000e+00
    endloop
  endfacet
  facet normal 0.000000e+00 0.000000e+00 1.000000e+00
    outer loop
      vertex 1.300000e+01 -9.500000e+00 3.500000e+00
      vertex 9.500000e+00 9.500000e+00 3.500000e+00
      vertex 9.500000e+00 -9.500000e+00 3.500000e+00
    endloop
  endfacet
  facet normal 0.000000e+00 0.000000e+00 -1.000000e+00
    outer loop
      vertex 1.300000e+01 9.500000e+00 2.250000e+01
      vertex 9.500000e+00 -9.500000e+00 2.250000e+01
      vertex 9.500000e+00 9.500000e+00 2.250000e+01
    endloop
  endfacet
  facet normal 0.000000e+00 0.000000e+00 -1.000000e+00
    outer loop
      vertex -1.300000e+01 -9.500000e+00 2.250000e+01
      vertex -9.500000e+00 9.500000e+00 2.250000e+01
      vertex -9.500000e+00 -9.500000e+00 2.250000e+01
    endloop
  endfacet
  facet normal 0.000000e+00 0.000000e+00 1.000000e+00
    outer loop
      vertex -1.300000e+01 9.500000e+00 3.500000e+00
      vertex -9.500000e+00 -9.500000e+00 3.500000e+00
      vertex -9.500000e+00 9.500000e+00 3.500000e+00
    endloop
  endfacet
  facet normal -1.000000e+00 0.000000e+00 0.000000e+00
    outer loop
      vertex 9.500000e+00 9.500000e+00 2.250000e+01
      vertex 9.500000e+00 -9.500000e+00 2.600000e+01
      vertex 9.500000e+00 9.500000e+00 2.600000e+01
    endloop
  endfacet
  facet normal -1.000000e+00 -0.000000e+00 -0.000000e+00
    outer loop
      vertex 9.500000e+00 -9.500000e+00 3.500000e+00
      vertex 9.500000e+00 9.500000e+00 0.000000e+00
      vertex 9.500000e+00 -9.500000e+00 0.000000e+00
    endloop
  endfacet
  facet normal 1.000000e+00 0.000000e+00 0.000000e+00
    outer loop
      vertex -9.500000e+00 -9.500000e+00 2.250000e+01
      vertex -9.500000e+00 9.500000e+00 2.600000e+01
      vertex -9.500000e+00 -9.500000e+00 2.600000e+01
    endloop
  endfacet
  facet normal 1.000000e+00 0.000000e+00 0.000000e+00
    outer loop
      vertex -9.500000e+00 9.500000e+00 3.500000e+00
      vertex -9.500000e+00 -9.500000e+00 0.000000e+00
      vertex -9.500000e+00 9.500000e+00 0.000000e+00
    endloop
  endfacet
  facet normal 0.000000e+00 0.000000e+00 1.000000e+00
    outer loop
      vertex 1.300000e+01 -1.300000e+01 2.600000e+01
      vertex 9.500000e+00 -9.500000e+00 2.600000e+01
      vertex -9.500000e+00 -9.500000e+00 2.600000e+01
    endloop
  endfacet
  facet normal 0.000000e+00 0.000000e+00 -1.000000e+00
    outer loop
      vertex 1.300000e+01 1.300000e+01 0.000000e+00
      vertex -9.500000e+00 9.500000e+00 0.000000e+00
      vertex -1.300000e+01 1.300000e+01 0.000000e+00
    endloop
  endfacet
  facet normal 0.000000e+00 -1.000000e+00 0.000000e+00
    outer loop
      vertex 1.300000e+01 -1.300000e+01 2.600000e+01
      vertex 9.500000e+00 -1.300000e+01 3.500000e+00
      vertex 1.300000e+01 -1.300000e+01 0.000000e+00
    endloop
  endfacet
  facet normal -1.000000e+00 0.000000e+00 0.000000e+00
    outer loop
      vertex -1.300000e+01 1.300000e+01 0.000000e+00
      vertex -1.300000e+01 9.500000e+00 3.500000e+00
      vertex -1.300000e+01 1.300000e+01 2.600000e+01
    endloop
  endfacet
  facet normal -1.000000e+00 -0.000000e+00 -0.000000e+00
    outer loop
      vertex 9.500000e+00 1.300000e+01 2.250000e+01
      vertex 9.500000e+00 1.300000e+01 3.500000e+00
      vertex 9.500000e+00 9.500000e+00 3.500000e+00
    endloop
  endfacet
  facet normal 0.000000e+00 0.000000e+00 -1.000000e+00
    outer loop
      vertex -9.500000e+00 1.300000e+01 2.250000e+01
      vertex 9.500000e+00 1.300000e+01 2.250000e+01
      vertex 9.500000e+00 9.500000e+00 2.250000e+01
    endloop
  endfacet
  facet normal 0.000000e+00 0.000000e+00 -1.000000e+00
    outer loop
      vertex 9.500000e+00 -1.300000e+01 2.250000e+01
      vertex -9.500000e+00 -1.300000e+01 2.250000e+01
      vertex -9.500000e+00 -9.500000e+00 2.250000e+01
    endloop
  endfacet
  facet normal 0.000000e+00 0.000000e+00 1.000000e+00
    outer loop
      vertex 9.500000e+00 1.300000e+01 3.500000e+00
      vertex -9.500000e+00 1.300000e+01 3.500000e+00
      vertex -9.500000e+00 9.500000e+00 3.500000e+00
    endloop
  endfacet
  facet normal 1.000000e+00 0.000000e+00 0.000000e+00
    outer loop
      vertex -9.500000e+00 1.300000e+01 3.500000e+00
      vertex -9.500000e+00 1.300000e+01 2.250000e+01
      vertex -9.500000e+00 9.500000e+00 2.250000e+01
    endloop
  endfacet
  facet normal 1.000000e+00 0.000000e+00 0.000000e+00
    outer loop
      vertex -9.500000e+00 -1.300000e+01 2.250000e+01
      vertex -9.500000e+00 -1.300000e+01 3.500000e+00
      vertex -9.500000e+00 -9.500000e+00 3.500000e+00
    endloop
  endfacet
  facet normal -1.000000e+00 0.000000e+00 0.000000e+00
    outer loop
      vertex 9.500000e+00 -1.300000e+01 3.500000e+00
      vertex 9.500000e+00 -1.300000e+01 2.250000e+01
      vertex 9.500000e+00 -9.500000e+00 2.250000e+01
    endloop
  endfacet
  facet normal 0.000000e+00 0.000000e+00 1.000000e+00
    outer loop
      vertex -9.500000e+00 -1.300000e+01 3.500000e+00
      vertex 9.500000e+00 -1.300000e+01 3.500000e+00
      vertex 9.500000e+00 -9.500000e+00 3.500000e+00
    endloop
  endfacet
  facet normal 0.000000e+00 1.000000e+00 0.000000e+00
    outer loop
      vertex -9.500000e+00 -9.500000e+00 3.500000e+00
      vertex 9.500000e+00 -9.500000e+00 3.500000e+00
      vertex 9.500000e+00 -9.500000e+00 0.000000e+00
    endloop
  endfacet
  facet normal 0.000000e+00 1.000000e+00 0.000000e+00
    outer loop
      vertex 9.500000e+00 -9.500000e+00 3.500000e+00
      vertex 9.500000e+00 -9.500000e+00 2.250000e+01
      vertex 1.300000e+01 -9.500000e+00 2.250000e+01
    endloop
  endfacet
  facet normal 0.000000e+00 1.000000e+00 0.000000e+00
    outer loop
      vertex 9.500000e+00 -9.500000e+00 2.250000e+01
      vertex -9.500000e+00 -9.500000e+00 2.250000e+01
      vertex -9.500000e+00 -9.500000e+00 2.600000e+01
    endloop
  endfacet
  facet normal 0.000000e+00 1.000000e+00 0.000000e+00
    outer loop
      vertex -9.500000e+00 -9.500000e+00 2.250000e+01
      vertex -9.500000e+00 -9.500000e+00 3.500000e+00
      vertex -1.300000e+01 -9.500000e+00 3.500000e+00
    endloop
  endfacet
  facet normal 0.000000e+00 -1.000000e+00 0.000000e+00
    outer loop
      vertex -9.500000e+00 9.500000e+00 3.500000e+00
      vertex -9.500000e+00 9.500000e+00 2.250000e+01
      vertex -1.300000e+01 9.500000e+00 2.250000e+01
    endloop
  endfacet
  facet normal 0.000000e+00 -1.000000e+00 0.000000e+00
    outer loop
      vertex -9.500000e+00 9.500000e+00 2.250000e+01
      vertex 9.500000e+00 9.500000e+00 2.250000e+01
      vertex 9.500000e+00 9.500000e+00 2.600000e+01
    endloop
  endfacet
  facet normal 0.000000e+00 -1.000000e+00 0.000000e+00
    outer loop
      vertex 9.500000e+00 9.500000e+00 2.250000e+01
      vertex 9.500000e+00 9.500000e+00 3.500000e+00
      vertex 1.300000e+01 9.500000e+00 3.500000e+00
    endloop
  endfacet
  facet normal -0.000000e+00 -1.000000e+00 -0.000000e+00
    outer loop
      vertex 9.500000e+00 9.500000e+00 3.500000e+00
      vertex -9.500000e+00 9.500000e+00 3.500000e+00
      vertex -9.500000e+00 9.500000e+00 0.000000e+00
    endloop
  endfacet
  facet normal 0.000000e+00 0.000000e+00 1.000000e+00
    outer loop
      vertex 1.300000e+01 -9.500000e+00 3.500000e+00
      vertex 1.300000e+01 9.500000e+00 3.500000e+00
      vertex 9.500000e+00 9.500000e+00 3.500000e+00
    endloop
  endfacet
  facet normal -0.000000e+00 -0.000000e+00 -1.000000e+00
    outer loop
      vertex 1.300000e+01 9.500000e+00 2.250000e+01
      vertex 1.300000e+01 -9.500000e+00 2.250000e+01
      vertex 9.500000e+00 -9.500000e+00 2.250000e+01
    endloop
  endfacet
  facet normal 0.000000e+00 0.000000e+00 -1.000000e+00
    outer loop
      vertex -1.300000e+01 -9.500000e+00 2.250000e+01
      vertex -1.300000e+01 9.500000e+00 2.250000e+01
      vertex -9.500000e+00 9.500000e+00 2.250000e+01
    endloop
  endfacet
  facet normal 0.000000e+00 0.000000e+00 1.000000e+00
    outer loop
      vertex -1.300000e+01 9.500000e+00 3.500000e+00
      vertex -1.300000e+01 -9.500000e+00 3.500000e+00
      vertex -9.500000e+00 -9.500000e+00 3.500000e+00
    endloop
  endfacet
  facet normal -1.000000e+00 0.000000e+00 0.000000e+00
    outer loop
      vertex 9.500000e+00 9.500000e+00 2.250000e+01
      vertex 9.500000e+00 -9.500000e+00 2.250000e+01
      vertex 9.500000e+00 -9.500000e+00 2.600000e+01
    endloop
  endfacet
  facet normal -1.000000e+00 0.000000e+00 0.000000e+00
    outer loop
      vertex 9.500000e+00 -9.500000e+00 3.500000e+00
      vertex 9.500000e+00 9.500000e+00 3.500000e+00
      vertex 9.500000e+00 9.500000e+00 0.000000e+00
    endloop
  endfacet
  facet normal 1.000000e+00 0.000000e+00 0.000000e+00
    outer loop
      vertex -9.500000e+00 -9.500000e+00 2.250000e+01
      vertex -9.500000e+00 9.500000e+00 2.250000e+01
      vertex -9.500000e+00 9.500000e+00 2.600000e+01
    endloop
  endfacet
  facet normal 1.000000e+00 0.000000e+00 0.000000e+00
    outer loop
      vertex -9.500000e+00 9.500000e+00 3.500000e+00
      vertex -9.500000e+00 -9.500000e+00 3.500000e+00
      vertex -9.500000e+00 -9.500000e+00 0.000000e+00
    endloop
  endfacet
  facet normal 0.000000e+00 0.000000e+00 1.000000e+00
    outer loop
      vertex 9.500000e+00 -9.500000e+00 2.600000e+01
      vertex 1.300000e+01 -1.300000e+01 2.600000e+01
      vertex 9.500000e+00 9.500000e+00 2.600000e+01
    endloop
  endfacet
  facet normal 0.000000e+00 0.000000e+00 1.000000e+00
    outer loop
      vertex 1.300000e+01 1.300000e+01 2.600000e+01
      vertex 9.500000e+00 9.500000e+00 2.600000e+01
      vertex 1.300000e+01 -1.300000e+01 2.600000e+01
    endloop
  endfacet
  facet normal 0.000000e+00 0.000000e+00 1.000000e+00
    outer loop
      vertex 9.500000e+00 9.500000e+00 2.600000e+01
      vertex 1.300000e+01 1.300000e+01 2.600000e+01
      vertex -9.500000e+00 9.500000e+00 2.600000e+01
    endloop
  endfacet
  facet normal 0.000000e+00 0.000000e+00 1.000000e+00
    outer loop
      vertex -1.300000e+01 1.300000e+01 2.600000e+01
      vertex -9.500000e+00 9.500000e+00 2.600000e+01
      vertex 1.300000e+01 1.300000e+01 2.600000e+01
    endloop
  endfacet
  facet normal 0.000000e+00 0.000000e+00 1.000000e+00
    outer loop
      vertex -9.500000e+00 9.500000e+00 2.600000e+01
      vertex -1.300000e+01 1.300000e+01 2.600000e+01
      vertex -9.500000e+00 -9.500000e+00 2.600000e+01
    endloop
  endfacet
  facet normal 0.000000e+00 0.000000e+00 1.000000e+00
    outer loop
      vertex -1.300000e+01 -1.300000e+01 2.600000e+01
      vertex -9.500000e+00 -9.500000e+00 2.600000e+01
      vertex -1.300000e+01 1.300000e+01 2.600000e+01
    endloop
  endfacet
  facet normal 0.000000e+00 0.000000e+00 1.000000e+00
    outer loop
      vertex -9.500000e+00 -9.500000e+00 2.600000e+01
      vertex -1.300000e+01 -1.300000e+01 2.600000e+01
      vertex 1.300000e+01 -1.300000e+01 2.600000e+01
    endloop
  endfacet
  facet normal 0.000000e+00 0.000000e+00 -1.000000e+00
    outer loop
      vertex -1.300000e+01 -1.300000e+01 0.000000e+00
      vertex -1.300000e+01 1.300000e+01 0.000000e+00
      vertex -9.500000e+00 9.500000e+00 0.000000e+00
    endloop
  endfacet
  facet normal 0.000000e+00 0.000000e+00 -1.000000e+00
    outer loop
      vertex -1.300000e+01 -1.300000e+01 0.000000e+00
      vertex -9.500000e+00 9.500000e+00 0.000000e+00
      vertex -9.500000e+00 -9.500000e+00 0.000000e+00
    endloop
  endfacet
  facet normal 0.000000e+00 0.000000e+00 -1.000000e+00
    outer loop
      vertex -1.300000e+01 -1.300000e+01 0.000000e+00
      vertex -9.500000e+00 -9.500000e+00 0.000000e+00
      vertex 9.500000e+00 -9.500000e+00 0.000000e+00
    endloop
  endfacet
  facet normal 0.000000e+00 0.000000e+00 -1.000000e+00
    outer loop
      vertex -1.300000e+01 -1.300000e+01 0.000000e+00
      vertex 9.500000e+00 -9.500000e+00 0.000000e+00
      vertex 1.300000e+01 -1.300000e+01 0.000000e+00
    endloop
  endfacet
  facet normal -0.000000e+00 -0.000000e+00 -1.000000e+00
    outer loop
      vertex 1.300000e+01 1.300000e+01 0.000000e+00
      vertex 1.300000e+01 -1.300000e+01 0.000000e+00
      vertex 9.500000e+00 -9.500000e+00 0.000000e+00
    endloop
  endfacet
  facet normal 0.000000e+00 0.000000e+00 -1.000000e+00
    outer loop
      vertex 1.300000e+01 1.300000e+01 0.000000e+00
      vertex 9.500000e+00 -9.500000e+00 0.000000e+00
      vertex 9.500000e+00 9.500000e+00 0.000000e+00
    endloop
  endfacet
  facet normal 0.000000e+00 0.000000e+00 -1.000000e+00
    outer loop
      vertex 1.300000e+01 1.300000e+01 0.000000e+00
      vertex 9.500000e+00 9.500000e+00 0.000000e+00
      vertex -9.500000e+00 9.500000e+00 0.000000e+00
    endloop
  endfacet
  facet normal 0.000000e+00 -1.000000e+00 0.000000e+00
    outer loop
      vertex -1.300000e+01 -1.300000e+01 0.000000e+00
      vertex 1.300000e+01 -1.300000e+01 0.000000e+00
      vertex 9.500000e+00 -1.300000e+01 3.500000e+00
    endloop
  endfacet
  facet normal 0.000000e+00 -1.000000e+00 0.000000e+00
    outer loop
      vertex -1.300000e+01 -1.300000e+01 0.000000e+00
      vertex 9.500000e+00 -1.300000e+01 3.500000e+00
      vertex -9.500000e+00 -1.300000e+01 3.500000e+00
    endloop
  endfacet
  facet normal 0.000000e+00 -1.000000e+00 0.000000e+00
    outer loop
      vertex -1.300000e+01 -1.300000e+01 0.000000e+00
      vertex -9.500000e+00 -1.300000e+01 3.500000e+00
      vertex -9.500000e+00 -1.300000e+01 2.250000e+01
    endloop
  endfacet
  facet normal 0.000000e+00 -1.000000e+00 0.000000e+00
    outer loop
      vertex -1.300000e+01 -1.300000e+01 0.000000e+00
      vertex -9.500000e+00 -1.300000e+01 2.250000e+01
      vertex -1.300000e+01 -1.300000e+01 2.600000e+01
    endloop
  endfacet
  facet normal -0.000000e+00 -1.000000e+00 -0.000000e+00
    outer loop
      vertex 1.300000e+01 -1.300000e+01 2.600000e+01
      vertex -1.300000e+01 -1.300000e+01 2.600000e+01
      vertex -9.500000e+00 -1.300000e+01 2.250000e+01
    endloop
  endfacet
  facet normal 0.000000e+00 -1.000000e+00 0.000000e+00
    outer loop
      vertex 1.300000e+01 -1.300000e+01 2.600000e+01
      vertex -9.500000e+00 -1.300000e+01 2.250000e+01
      vertex 9.500000e+00 -1.300000e+01 2.250000e+01
    endloop
  endfacet
  facet normal 0.000000e+00 -1.000000e+00 0.000000e+00
    outer loop
      vertex 1.300000e+01 -1.300000e+01 2.600000e+01
      vertex 9.500000e+00 -1.300000e+01 2.250000e+01
      vertex 9.500000e+00 -1.300000e+01 3.500000e+00
    endloop
  endfacet
  facet normal -1.000000e+00 0.000000e+00 0.000000e+00
    outer loop
      vertex -1.300000e+01 9.500000e+00 3.500000e+00
      vertex -1.300000e+01 9.500000e+00 2.250000e+01
      vertex -1.300000e+01 1.300000e+01 2.600000e+01
    endloop
  endfacet
  facet normal -1.000000e+00 0.000000e+00 0.000000e+00
    outer loop
      vertex -1.300000e+01 -9.500000e+00 2.250000e+01
      vertex -1.300000e+01 1.300000e+01 2.600000e+01
      vertex -1.300000e+01 9.500000e+00 2.250000e+01
    endloop
  endfacet
  facet normal -1.000000e+00 0.000000e+00 0.000000e+00
    outer loop
      vertex -1.300000e+01 1.300000e+01 2.600000e+01
      vertex -1.300000e+01 -9.500000e+00 2.250000e+01
      vertex -1.300000e+01 -1.300000e+01 2.600000e+01
    endloop
  endfacet
  facet normal -1.000000e+00 0.000000e+00 0.000000e+00
    outer loop
      vertex -1.300000e+01 -9.500000e+00 3.500000e+00
      vertex -1.300000e+01 -1.300000e+01 2.600000e+01
      vertex -1.300000e+01 -9.500000e+00 2.250000e+01
    endloop
  endfacet
  facet normal -1.000000e+00 0.000000e+00 0.000000e+00
    outer loop
      vertex -1.300000e+01 -1.300000e+01 2.600000e+01
      vertex -1.300000e+01 -9.500000e+00 3.500000e+00
      vertex -1.300000e+01 -1.300000e+01 0.000000e+00
    endloop
  endfacet
  facet normal -1.000000e+00 0.000000e+00 0.000000e+00
    outer loop
      vertex -1.300000e+01 1.300000e+01 0.000000e+00
      vertex -1.300000e+01 -1.300000e+01 0.000000e+00
      vertex -1.300000e+01 -9.500000e+00 3.500000e+00
    endloop
  endfacet
  facet normal -1.000000e+00 0.000000e+00 0.000000e+00
    outer loop
      vertex -1.300000e+01 1.300000e+01 0.000000e+00
      vertex -1.300000e+01 -9.500000e+00 3.500000e+00
      vertex -1.300000e+01 9.500000e+00 3.500000e+00
    endloop
  endfacet
  facet normal 0.000000e+00 1.000000e+00 0.000000e+00
    outer loop
      vertex -9.500000e+00 1.300000e+01 2.250000e+01
      vertex -1.300000e+01 1.300000e+01 2.600000e+01
      vertex 9.500000e+00 1.300000e+01 2.250000e+01
    endloop
  endfacet
  facet normal 0.000000e+00 1.000000e+00 0.000000e+00
    outer loop
      vertex 1.300000e+01 1.300000e+01 2.600000e+01
      vertex 9.500000e+00 1.300000e+01 2.250000e+01
      vertex -1.300000e+01 1.300000e+01 2.600000e+01
    endloop
  endfacet
  facet normal 0.000000e+00 1.000000e+00 0.000000e+00
    outer loop
      vertex 9.500000e+00 1.300000e+01 2.250000e+01
      vertex 1.300000e+01 1.300000e+01 2.600000e+01
      vertex 9.500000e+00 1.300000e+01 3.500000e+00
    endloop
  endfacet
  facet normal 0.000000e+00 1.000000e+00 0.000000e+00
    outer loop
      vertex 1.300000e+01 1.300000e+01 0.000000e+00
      vertex 9.500000e+00 1.300000e+01 3.500000e+00
      vertex 1.300000e+01 1.300000e+01 2.600000e+01
    endloop
  endfacet
  facet normal 0.000000e+00 1.000000e+00 0.000000e+00
    outer loop
      vertex 9.500000e+00 1.300000e+01 3.500000e+00
      vertex 1.300000e+01 1.300000e+01 0.000000e+00
      vertex -9.500000e+00 1.300000e+01 3.500000e+00
    endloop
  endfacet
  facet normal 0.000000e+00 1.000000e+00 0.000000e+00
    outer loop
      vertex -1.300000e+01 1.300000e+01 0.000000e+00
      vertex -9.500000e+00 1.300000e+01 3.500000e+00
      vertex 1.300000e+01 1.300000e+01 0.000000e+00
    endloop
  endfacet
  facet normal 0.000000e+00 1.000000e+00 0.000000e+00
    outer loop
      vertex -9.500000e+00 1.300000e+01 3.500000e+00
      vertex -1.300000e+01 1.300000e+01 0.000000e+00
      vertex -1.300000e+01 1.300000e+01 2.600000e+01
    endloop
  endfacet
  facet normal 1.000000e+00 0.000000e+00 0.000000e+00
    outer loop
      vertex 1.300000e+01 9.500000e+00 2.250000e+01
      vertex 1.300000e+01 9.500000e+00 3.500000e+00
      vertex 1.300000e+01 1.300000e+01 0.000000e+00
    endloop
  endfacet
  facet normal 1.000000e+00 0.000000e+00 0.000000e+00
    outer loop
      vertex 1.300000e+01 -9.500000e+00 3.500000e+00
      vertex 1.300000e+01 1.300000e+01 0.000000e+00
      vertex 1.300000e+01 9.500000e+00 3.500000e+00
    endloop
  endfacet
  facet normal 1.000000e+00 0.000000e+00 0.000000e+00
    outer loop
      vertex 1.300000e+01 1.300000e+01 0.000000e+00
      vertex 1.300000e+01 -9.500000e+00 3.500000e+00
      vertex 1.300000e+01 -1.300000e+01 0.000000e+00
    endloop
  endfacet
  facet normal 1.000000e+00 0.000000e+00 0.000000e+00
    outer loop
      vertex 1.300000e+01 -9.500000e+00 2.250000e+01
      vertex 1.300000e+01 -1.300000e+01 0.000000e+00
      vertex 1.300000e+01 -9.500000e+00 3.500000e+00
    endloop
  endfacet
  facet normal 1.000000e+00 0.000000e+00 0.000000e+00
    outer loop
      vertex 1.300000e+01 -1.300000e+01 0.000000e+00
      vertex 1.300000e+01 -9.500000e+00 2.250000e+01
      vertex 1.300000e+01 -1.300000e+01 2.600000e+01
    endloop
  endfacet
  facet normal 1.000000e+00 0.000000e+00 0.000000e+00
    outer loop
      vertex 1.300000e+01 1.300000e+01 2.600000e+01
      vertex 1.300000e+01 -1.300000e+01 2.600000e+01
      vertex 1.300000e+01 -9.500000e+00 2.250000e+01
    endloop
  endfacet
  facet normal 1.000000e+00 0.000000e+00 0.000000e+00
    outer loop
      vertex 1.300000e+01 1.300000e+01 2.600000e+01
      vertex 1.300000e+01 -9.500000e+00 2.250000e+01
      vertex 1.300000e+01 9.500000e+00 2.250000e+01
    endloop
  endfacet
  facet normal 1.000000e+00 0.000000e+00 0.000000e+00
    outer loop
      vertex 1.300000e+01 1.300000e+01 2.600000e+01
      vertex 1.300000e+01 9.500000e+00 2.250000e+01
      vertex 1.300000e+01 1.300000e+01 0.000000e+00
    endloop
  endfacet
endsolid Default
