ply
format ascii 1.0
element vertex 176
property float32 x
property float32 y
property float32 z
end_header
110.191342 109.538060 0.000000
110.277785 109.584265 0.000000
110.415735 110.277785 0.000000
110.461940 110.191342 0.000000
110.000000 110.500000 0.000000
110.097545 110.490393 0.000000
109.538060 109.808659 0.000000
109.584265 109.722215 0.000000
109.646446 109.646447 0.000000
109.722215 109.584265 0.000000
109.509607 110.097546 0.000000
109.538060 110.191342 0.000000
109.646447 110.353554 0.000000
109.722215 110.415735 0.000000
110.277785 109.584265 0.000000
110.353553 109.646447 0.000000
110.191342 110.461940 0.000000
110.277785 110.415735 0.000000
110.097545 110.490393 0.000000
110.191342 110.461940 0.000000
109.584265 109.722215 0.000000
109.646446 109.646447 0.000000
109.584266 110.277786 0.000000
109.646447 110.353554 0.000000
109.509607 109.902455 0.000000
109.538060 109.808659 0.000000
110.097545 109.509607 0.000000
110.191342 109.538060 0.000000
109.722215 110.415735 0.000000
109.808659 110.461940 0.000000
109.808658 109.538060 0.000000
109.902455 109.509607 0.000000
110.461940 109.808658 0.000000
110.490393 109.902455 0.000000
109.500000 110.000000 0.000000
109.509607 109.902455 0.000000
110.490393 109.902455 0.000000
110.500000 110.000000 0.000000
110.461940 110.191342 0.000000
110.490393 110.097545 0.000000
109.500000 110.000000 0.000000
109.509607 110.097546 0.000000
110.415735 109.722215 0.000000
110.461940 109.808658 0.000000
110.353553 109.646447 0.000000
110.415735 109.722215 0.000000
109.000000 109.000000 0.000000
109.400000 109.000000 0.000000
109.800000 109.000000 0.000000
110.200000 109.000000 0.000000
110.600000 109.000000 0.000000
111.000000 109.000000 0.000000
111.000000 109.000000 0.000000
111.000000 109.400000 0.000000
111.000000 109.800000 0.000000
111.000000 110.200000 0.000000
111.000000 110.600000 0.000000
111.000000 111.000000 0.000000
109.000000 111.000000 0.000000
109.400000 111.000000 0.000000
109.800000 111.000000 0.000000
110.200000 111.000000 0.000000
110.600000 111.000000 0.000000
111.000000 111.000000 0.000000
109.000000 109.000000 0.000000
109.000000 109.400000 0.000000
109.000000 109.800000 0.000000
109.000000 110.200000 0.000000
109.000000 110.600000 0.000000
109.000000 111.000000 0.000000
109.538060 110.191342 0.000000
109.584266 110.277786 0.000000
109.722215 109.584265 0.000000
109.808658 109.538060 0.000000
110.277785 110.415735 0.000000
110.353553 110.353553 0.000000
109.808659 110.461940 0.000000
109.902456 110.490393 0.000000
110.000000 109.500000 0.000000
110.097545 109.509607 0.000000
109.902455 109.509607 0.000000
110.000000 109.500000 0.000000
109.902456 110.490393 0.000000
110.000000 110.500000 0.000000
110.353553 110.353553 0.000000
110.415735 110.277785 0.000000
110.490393 110.097545 0.000000
110.500000 110.000000 0.000000
110.415735 110.277785 0.400000
110.461940 110.191342 0.400000
110.000000 110.500000 0.400000
110.097545 110.490393 0.400000
109.538060 109.808659 0.400000
109.584265 109.722215 0.400000
109.646446 109.646447 0.400000
109.722215 109.584265 0.400000
109.500000 110.000000 0.400000
109.509607 109.902455 0.400000
110.191342 109.538060 0.400000
110.277785 109.584265 0.400000
109.509607 110.097546 0.400000
109.538060 110.191342 0.400000
109.646447 110.353554 0.400000
109.722215 110.415735 0.400000
110.277785 109.584265 0.400000
110.353553 109.646447 0.400000
109.584265 109.722215 0.400000
109.646446 109.646447 0.400000
109.584266 110.277786 0.400000
109.646447 110.353554 0.400000
109.509607 109.902455 0.400000
109.538060 109.808659 0.400000
110.097545 109.509607 0.400000
110.191342 109.538060 0.400000
110.191342 110.461940 0.400000
110.277785 110.415735 0.400000
110.097545 110.490393 0.400000
110.191342 110.461940 0.400000
109.722215 110.415735 0.400000
109.808659 110.461940 0.400000
109.808658 109.538060 0.400000
109.902455 109.509607 0.400000
110.461940 109.808658 0.400000
110.490393 109.902455 0.400000
110.461940 110.191342 0.400000
110.490393 110.097545 0.400000
109.500000 110.000000 0.400000
109.509607 110.097546 0.400000
110.415735 109.722215 0.400000
110.461940 109.808658 0.400000
110.353553 109.646447 0.400000
110.415735 109.722215 0.400000
110.490393 110.097545 0.400000
110.500000 110.000000 0.400000
110.490393 109.902455 0.400000
110.500000 110.000000 0.400000
109.000000 109.000000 0.400000
109.400000 109.000000 0.400000
109.800000 109.000000 0.400000
110.200000 109.000000 0.400000
110.600000 109.000000 0.400000
111.000000 109.000000 0.400000
111.000000 109.000000 0.400000
111.000000 109.400000 0.400000
111.000000 109.800000 0.400000
111.000000 110.200000 0.400000
111.000000 110.600000 0.400000
111.000000 111.000000 0.400000
109.000000 111.000000 0.400000
109.400000 111.000000 0.400000
109.800000 111.000000 0.400000
110.200000 111.000000 0.400000
110.600000 111.000000 0.400000
111.000000 111.000000 0.400000
109.722215 109.584265 0.400000
109.808658 109.538060 0.400000
110.277785 110.415735 0.400000
110.353553 110.353553 0.400000
109.808659 110.461940 0.400000
109.902456 110.490393 0.400000
110.000000 109.500000 0.400000
110.097545 109.509607 0.400000
109.000000 109.000000 0.400000
109.000000 109.400000 0.400000
109.000000 109.800000 0.400000
109.000000 110.200000 0.400000
109.000000 110.600000 0.400000
109.000000 111.000000 0.400000
109.538060 110.191342 0.400000
109.584266 110.277786 0.400000
109.902455 109.509607 0.400000
110.000000 109.500000 0.400000
109.902456 110.490393 0.400000
110.000000 110.500000 0.400000
110.353553 110.353553 0.400000
110.415735 110.277785 0.400000
